<svg version="1.1" xmlns="http://www.w3.org/2000/svg" xmlns:xlink="http://www.w3.org/1999/xlink" width="183.99436" height="53.69681" viewBox="0,0,183.99436,53.69681"><g transform="translate(-313.18661,-153.15159)"><g stroke="none" stroke-miterlimit="10"><path d="M318.68097,200.28545v-45h178.5v45z" fill="#000000" stroke-width="0"/><path d="M326.21997,171.05132l-4.50028,14.25924l3.34655,-2.37539l-6.82461,22.15321l1.38972,-15.68244l-2.38817,2.47421l1.6391,-13.73426l-3.72703,2.75955l2.28195,-11.21594l-3.24596,2.06631l-0.41119,-16.84397l8.24788,-0.00023l-1.80871,10.28302l4.72613,-2.36134l-3.3723,10.49566l4.64693,-2.27764" fill="#faec00" stroke-width="0.66342"/><path d="M326.81338,169.44617l-3.51484,12.94177l3.51484,-2.4152l-9.04148,26.87566l0.57105,-15.81266l-1.91186,1.68041l1.74855,-13.69165l-3.76749,2.19737l1.86061,-10.90056l-2.72578,2.00876l-0.36037,-19.17848l9.87766,0.50483l-1.58632,9.26469l4.36208,-1.88937l-2.99228,10.0546l3.96562,-1.64018zM324.65041,182.60423l-3.35261,2.37927l4.54224,-14.3918l-4.65039,2.27914l3.37077,-10.49045l-4.65039,2.32345l1.83851,-10.45214l-7.76874,0.0002l0.39646,16.23964l3.35261,-2.13419l-2.27112,11.16247l3.67708,-2.72255l-1.62225,13.59367l2.36717,-2.45217l-1.26361,14.25272z" fill="#231f20" stroke-width="0.66342"/></g></g></svg>