<svg version="1.1" xmlns="http://www.w3.org/2000/svg" xmlns:xlink="http://www.w3.org/1999/xlink" width="23.56532" height="23.56532" viewBox="0,0,23.56532,23.56532"><g transform="translate(-308.21734,-168.21734)"><g data-paper-data="{&quot;isPaintingLayer&quot;:true}" fill-rule="nonzero" stroke-linecap="butt" stroke-linejoin="miter" stroke-miterlimit="10" stroke-dasharray="" stroke-dashoffset="0" style="mix-blend-mode: normal"><path d="M308.83982,180c0,-6.1636 4.99658,-11.16018 11.16018,-11.16018c6.1636,0 11.16018,4.99658 11.16018,11.16018c0,6.1636 -4.99658,11.16018 -11.16018,11.16018c-6.1636,0 -11.16018,-4.99658 -11.16018,-11.16018z" fill="#ffffff" stroke="none" stroke-width="NaN"/><path d="M308.96734,180c0,-6.09317 4.93949,-11.03266 11.03266,-11.03266c6.09317,0 11.03266,4.93949 11.03266,11.03266c0,6.09317 -4.93949,11.03266 -11.03266,11.03266c-6.09317,0 -11.03266,-4.93949 -11.03266,-11.03266z" fill="none" stroke="#696969" stroke-width="1.5"/><text transform="translate(312.28128,183.24296) scale(0.28108,0.28108)" font-size="40" xml:space="preserve" fill="#1500ff" fill-rule="nonzero" stroke="none" stroke-width="1" stroke-linecap="butt" stroke-linejoin="miter" stroke-miterlimit="10" stroke-dasharray="" stroke-dashoffset="0" font-family="Sans Serif" font-weight="normal" text-anchor="start" style="mix-blend-mode: normal"><tspan x="0" dy="0">🔐</tspan></text></g></g></svg>